<?xml version="1.0" standalone="no"?>
<!DOCTYPE svg PUBLIC "-//W3C//DTD SVG 20010904//EN"
 "http://www.w3.org/TR/2001/REC-SVG-20010904/DTD/svg10.dtd">
<svg version="1.0" xmlns="http://www.w3.org/2000/svg"
 width="840.000000pt" height="859.000000pt" viewBox="0 0 840.000000 859.000000"
 preserveAspectRatio="xMidYMid meet">
<metadata>
Created by potrace 1.15, written by Peter Selinger 2001-2017
</metadata>
<g transform="translate(0.000000,859.000000) scale(0.100000,-0.100000)"
fill="rgb(0,100,250)" stroke="none">
<path d="M2405 8110 c-110 -7 -151 -13 -345 -51 -291 -57 -620 -195 -885 -373
-477 -319 -829 -789 -1006 -1341 -80 -251 -113 -469 -113 -755 -1 -294 28
-494 111 -760 95 -303 241 -580 436 -825 102 -128 3433 -3465 3496 -3503 64
-37 158 -37 222 0 69 42 3397 3377 3506 3514 345 436 542 1000 543 1554 1 816
-386 1582 -1041 2058 -575 418 -1289 576 -1982 437 -399 -80 -744 -235 -1059
-477 l-76 -59 -114 84 c-362 269 -758 426 -1223 486 -111 14 -339 20 -470 11z
m370 -475 c50 -3 152 -19 229 -35 389 -83 728 -261 1014 -534 96 -92 189 -117
281 -76 24 11 82 55 130 98 121 109 173 150 275 217 543 355 1223 435 1833
216 279 -101 540 -267 758 -486 274 -274 461 -608 544 -975 51 -222 56 -264
55 -485 0 -187 -3 -225 -27 -345 -76 -382 -208 -672 -433 -950 -29 -36 -766
-778 -1638 -1650 l-1586 -1585 -1576 1575 c-866 866 -1601 1607 -1632 1645
-31 39 -59 72 -63 75 -10 9 -106 155 -142 215 -183 312 -292 753 -272 1110 16
306 89 585 221 845 238 471 636 825 1127 1006 285 105 563 142 902 119z"/>
<path d="M2063 7269 c-194 -55 -434 -184 -603 -324 -82 -68 -208 -196 -255
-260 -16 -22 -33 -42 -36 -45 -13 -11 -108 -159 -140 -220 -87 -160 -166 -398
-194 -586 -17 -115 -20 -352 -5 -474 15 -116 56 -267 85 -312 14 -20 46 -49
72 -65 40 -23 58 -27 118 -27 107 0 167 39 219 141 21 43 20 105 -4 205 -27
108 -37 334 -21 448 25 181 108 402 204 545 113 169 285 326 460 422 52 29
148 70 213 93 145 50 185 76 219 143 65 132 1 291 -134 331 -71 21 -77 20
-198 -15z"/>
</g>
</svg>
